<?xml version="1.0" encoding="UTF-8" standalone="no"?>
<!DOCTYPE svg PUBLIC "-//W3C//DTD SVG 1.1//EN" "http://www.w3.org/Graphics/SVG/1.1/DTD/svg11.dtd">
<!-- Created with Vectornator (http://vectornator.io/) -->
<svg height="100%" stroke-miterlimit="10" style="fill-rule:nonzero;clip-rule:evenodd;stroke-linecap:round;stroke-linejoin:round;" version="1.1" viewBox="0 0 267.426 268.163" width="100%" xml:space="preserve" xmlns="http://www.w3.org/2000/svg" xmlns:vectornator="http://vectornator.io" xmlns:xlink="http://www.w3.org/1999/xlink">
<defs/>
<clipPath id="ArtboardFrame">
<rect height="268.163" width="267.426" x="0" y="0"/>
</clipPath>
<g clip-path="url(#ArtboardFrame)" id="Layer-2" vectornator:layername="Layer 2">
<path d="M10.6036-1.06581e-14L51.8168-1.06581e-14C57.673-1.06581e-14 62.4205 4.74742 62.4205 10.6036L62.4205 51.8168C62.4205 57.673 57.673 62.4205 51.8168 62.4205L10.6036 62.4205C4.74742 62.4205-1.06581e-14 57.673-1.06581e-14 51.8168L-1.06581e-14 10.6036C-1.06581e-14 4.74742 4.74742-1.06581e-14 10.6036-1.06581e-14Z" fill="#ffffff" fill-rule="nonzero" opacity="1" stroke="none"/>
<path d="M113.604-1.06581e-14L154.817-1.06581e-14C160.673-1.06581e-14 165.42 4.74742 165.42 10.6036L165.42 51.8168C165.42 57.673 160.673 62.4205 154.817 62.4205L113.604 62.4205C107.747 62.4205 103 57.673 103 51.8168L103 10.6036C103 4.74742 107.747-1.06581e-14 113.604-1.06581e-14Z" fill="#ffffff" fill-rule="nonzero" opacity="1" stroke="none"/>
<path d="M215.604-1.06581e-14L256.817-1.06581e-14C262.673-1.06581e-14 267.42 4.74742 267.42 10.6036L267.42 51.8168C267.42 57.673 262.673 62.4205 256.817 62.4205L215.604 62.4205C209.747 62.4205 205 57.673 205 51.8168L205 10.6036C205 4.74742 209.747-1.06581e-14 215.604-1.06581e-14Z" fill="#ffffff" fill-rule="nonzero" opacity="1" stroke="none"/>
<path d="M10.6036 102.733L51.8168 102.733C57.673 102.733 62.4205 107.481 62.4205 113.337L62.4205 154.55C62.4205 160.406 57.673 165.154 51.8168 165.154L10.6036 165.154C4.74742 165.154-1.06581e-14 160.406-1.06581e-14 154.55L-1.06581e-14 113.337C-1.06581e-14 107.481 4.74742 102.733 10.6036 102.733Z" fill="#ffffff" fill-rule="nonzero" opacity="1" stroke="none"/>
<path d="M113.604 102.733L154.817 102.733C160.673 102.733 165.42 107.481 165.42 113.337L165.42 154.55C165.42 160.406 160.673 165.154 154.817 165.154L113.604 165.154C107.747 165.154 103 160.406 103 154.55L103 113.337C103 107.481 107.747 102.733 113.604 102.733Z" fill="#ffffff" fill-rule="nonzero" opacity="1" stroke="none"/>
<path d="M215.604 102.733L256.817 102.733C262.673 102.733 267.42 107.481 267.42 113.337L267.42 154.55C267.42 160.406 262.673 165.154 256.817 165.154L215.604 165.154C209.747 165.154 205 160.406 205 154.55L205 113.337C205 107.481 209.747 102.733 215.604 102.733Z" fill="#ffffff" fill-rule="nonzero" opacity="1" stroke="none"/>
<path d="M10.6036 205.733L51.8168 205.733C57.673 205.733 62.4205 210.481 62.4205 216.337L62.4205 257.55C62.4205 263.406 57.673 268.154 51.8168 268.154L10.6036 268.154C4.74742 268.154-1.06581e-14 263.406-1.06581e-14 257.55L-1.06581e-14 216.337C-1.06581e-14 210.481 4.74742 205.733 10.6036 205.733Z" fill="#ffffff" fill-rule="nonzero" opacity="1" stroke="none"/>
<path d="M113.604 205.733L154.817 205.733C160.673 205.733 165.42 210.481 165.42 216.337L165.42 257.55C165.42 263.406 160.673 268.154 154.817 268.154L113.604 268.154C107.747 268.154 103 263.406 103 257.55L103 216.337C103 210.481 107.747 205.733 113.604 205.733Z" fill="#ffffff" fill-rule="nonzero" opacity="1" stroke="none"/>
<path d="M215.604 205.733L256.817 205.733C262.673 205.733 267.42 210.481 267.42 216.337L267.42 257.55C267.42 263.406 262.673 268.154 256.817 268.154L215.604 268.154C209.747 268.154 205 263.406 205 257.55L205 216.337C205 210.481 209.747 205.733 215.604 205.733Z" fill="#ffffff" fill-rule="nonzero" opacity="1" stroke="none"/>
</g>
</svg>