<?xml version="1.0" encoding="UTF-8"?><svg id="Layer_2" xmlns="http://www.w3.org/2000/svg" xmlns:xlink="http://www.w3.org/1999/xlink" viewBox="0 0 1488.35 398.49"><defs><filter id="outer-glow-1" filterUnits="userSpaceOnUse"><feOffset dx="0" dy="0"/><feGaussianBlur result="blur" stdDeviation="19.31"/><feFlood flood-color="#34c4e7" flood-opacity=".75"/><feComposite in2="blur" operator="in"/><feComposite in="SourceGraphic"/></filter><filter id="outer-glow-2" filterUnits="userSpaceOnUse"><feOffset dx="0" dy="0"/><feGaussianBlur result="blur-2" stdDeviation="19.31"/><feFlood flood-color="#34c4e7" flood-opacity=".75"/><feComposite in2="blur-2" operator="in"/><feComposite in="SourceGraphic"/></filter><filter id="outer-glow-3" filterUnits="userSpaceOnUse"><feOffset dx="0" dy="0"/><feGaussianBlur result="blur-3" stdDeviation="19.31"/><feFlood flood-color="#34c4e7" flood-opacity=".75"/><feComposite in2="blur-3" operator="in"/><feComposite in="SourceGraphic"/></filter></defs><g id="Layer_1-2"><g><g style="filter:url(#outer-glow-1);"><path d="M163.42,349.25h-24.39V128.1c0-3.12,.87-12.27,2.61-27.45l-47.66,215.8h-5.21L41.11,100.65c1.74,15.33,2.61,24.47,2.61,27.45v221.16H19.32V0h24.02l47.29,227.18c.25,1.19,.5,4.54,.75,10.04,0-2.23,.25-5.58,.74-10.04L139.4,0h24.02V349.25Z" style="fill:#fff;"/><path d="M326.69,324.48c0,7.29-1.99,13.24-5.96,17.85-3.97,4.61-9,6.92-15.08,6.92h-75.03c-6.08,0-11.05-2.3-14.89-6.92-3.85-4.61-5.77-10.56-5.77-17.85V24.77c0-7.29,1.92-13.24,5.77-17.85,3.84-4.61,8.81-6.92,14.89-6.92h75.03c6.08,0,11.11,2.31,15.08,6.92,3.97,4.61,5.96,10.57,5.96,17.85V106h-26.06V27.45h-64.79V321.8h64.79v-85.92h26.06v88.6Z" style="fill:#fff;"/><path d="M485.49,324.48c0,7.29-1.89,13.24-5.68,17.85-3.79,4.61-8.72,6.92-14.8,6.92h-73.35c-6.08,0-11.08-2.3-14.99-6.92-3.91-4.61-5.86-10.56-5.86-17.85v-88.6h25.88v85.92h62.93v-83.24l-80.43-116.49c-5.58-8.03-8.38-16.88-8.38-26.56V24.77c0-7.29,1.96-13.24,5.86-17.85,3.91-4.61,8.9-6.92,14.99-6.92h73.35c6.08,0,11.01,2.31,14.8,6.92,3.78,4.61,5.68,10.57,5.68,17.85V106h-25.88V27.45h-62.93V101.09l80.8,116.49c5.33,7.74,8,16.44,8,26.11v80.79Z" style="fill:#fff;"/><path d="M633.87,324.48c0,7.29-1.93,13.24-5.77,17.85-3.85,4.61-8.81,6.92-14.89,6.92h-67.77c-6.08,0-11.05-2.3-14.89-6.92-3.85-4.61-5.77-10.56-5.77-17.85v-88.6h25.88v85.92h57.34V0h25.88V324.48Z" style="fill:#fff;"/><path d="M781.13,349.25h-24.39v-6.03c-9.93,1.64-19.8,3.2-29.6,4.69-11.92,1.79-21.78,2.68-29.6,2.68-13.4,0-20.11-8.03-20.11-24.1V132.11h24.39v190.58l54.92-1.79V132.11h24.39v217.14Z" style="fill:#fff;"/><path d="M923.18,349.25h-26.99l-49.89-110.69v110.69h-24.76V0h24.76V221.83l46.54-89.71h26.62v.89l-52.69,95.96,56.41,120.29Z" style="fill:#fff;"/><path d="M1050.52,324.03c0,16.81-6.95,25.22-20.85,25.22h-59.57c-13.9,0-20.85-8.4-20.85-25.22V157.33c0-16.81,6.95-25.22,20.85-25.22h59.57c13.9,0,20.85,8.41,20.85,25.22v78.11l-8.38,10.49h-68.88v78.55h53.25v-39.72h24.02v39.28Zm-24.02-101.76v-65.39h-53.25v65.39h53.25Z" style="fill:#fff;"/><path d="M1195.55,302.61c0,13.39-3.66,24.51-10.98,33.36-7.33,8.85-16.51,13.28-27.55,13.28h-65.53V0h24.76V138.14c9.8-1.49,19.61-2.97,29.41-4.46,12.41-1.93,22.15-2.9,29.23-2.9,13.78,0,20.66,8.11,20.66,24.33v147.51Zm-24.76-4.46V158.67l-54.55,1.79v162.69h34.25c13.53,0,20.29-8.33,20.29-24.99Z" style="fill:#fff;"/><path d="M1340.02,324.03c0,16.81-7.01,25.22-21.04,25.22h-62.18c-13.9,0-20.85-8.4-20.85-25.22V157.33c0-16.81,6.95-25.22,20.85-25.22h62.18c14.02,0,21.04,8.41,21.04,25.22v166.7Zm-24.76-.89V158.22h-54.55v164.92h54.55Z" style="fill:#fff;"/><path d="M1478.71,349.25h-25.13l-30.53-85.92-30.9,85.92h-24.39v-.89l42.26-110.69-39.65-105.56h25.13l27.93,79.67,28.67-79.67h24.02v.89l-39.65,103.77,42.26,112.47Z" style="fill:#fff;"/></g><g style="filter:url(#outer-glow-2);"><path d="M1478.7,398.49H9.65c-5.33,0-9.65-4.32-9.65-9.65s4.32-9.65,9.65-9.65H1478.7c5.33,0,9.65,4.32,9.65,9.65s-4.32,9.65-9.65,9.65Z" style="fill:#2bc0d3;"/></g><g style="filter:url(#outer-glow-3);"><path d="M1419.87,62.05h-263.59c-5.33,0-9.65-4.32-9.65-9.65s4.32-9.65,9.65-9.65h263.59c5.33,0,9.65,4.32,9.65,9.65s-4.32,9.65-9.65,9.65Z" style="fill:#2bc0d3;"/><path d="M782.86,62.05h-52.78c-5.33,0-9.65-4.32-9.65-9.65s4.32-9.65,9.65-9.65h52.78c5.33,0,9.65,4.32,9.65,9.65s-4.32,9.65-9.65,9.65Z" style="fill:#2bc0d3;"/><path d="M700.66,91.47c-21.54,0-39.07-17.53-39.07-39.07s17.53-39.07,39.07-39.07,39.07,17.53,39.07,39.07-17.53,39.07-39.07,39.07Zm0-58.83c-10.9,0-19.76,8.86-19.76,19.76s8.86,19.76,19.76,19.76,19.76-8.86,19.76-19.76-8.86-19.76-19.76-19.76Z" style="fill:#2bc0d3;"/><path d="M1449.28,91.47c-21.54,0-39.07-17.53-39.07-39.07s17.53-39.07,39.07-39.07,39.07,17.53,39.07,39.07-17.53,39.07-39.07,39.07Zm0-58.83c-10.9,0-19.76,8.86-19.76,19.76s8.86,19.76,19.76,19.76,19.76-8.86,19.76-19.76-8.86-19.76-19.76-19.76Z" style="fill:#2bc0d3;"/><path d="M1049.92,62.05h-171.29c-5.33,0-9.65-4.32-9.65-9.65s4.32-9.65,9.65-9.65h171.29c5.33,0,9.65,4.32,9.65,9.65s-4.32,9.65-9.65,9.65Z" style="fill:#2bc0d3;"/></g></g></g></svg>