<?xml version="1.0" encoding="UTF-8"?><svg id="Layer_2" xmlns="http://www.w3.org/2000/svg" xmlns:xlink="http://www.w3.org/1999/xlink" viewBox="0 0 1452.86 431.6"><defs><filter id="outer-glow-1" filterUnits="userSpaceOnUse"><feOffset dx="0" dy="0"/><feGaussianBlur result="blur" stdDeviation="19.31"/><feFlood flood-color="#34c4e7" flood-opacity=".75"/><feComposite in2="blur" operator="in"/><feComposite in="SourceGraphic"/></filter><filter id="outer-glow-2" filterUnits="userSpaceOnUse"><feOffset dx="0" dy="0"/><feGaussianBlur result="blur-2" stdDeviation="19.31"/><feFlood flood-color="#34c4e7" flood-opacity=".75"/><feComposite in2="blur-2" operator="in"/><feComposite in="SourceGraphic"/></filter><filter id="outer-glow-3" filterUnits="userSpaceOnUse"><feOffset dx="0" dy="0"/><feGaussianBlur result="blur-3" stdDeviation="19.31"/><feFlood flood-color="#34c4e7" flood-opacity=".75"/><feComposite in2="blur-3" operator="in"/><feComposite in="SourceGraphic"/></filter><filter id="outer-glow-4" filterUnits="userSpaceOnUse"><feOffset dx="0" dy="0"/><feGaussianBlur result="blur-4" stdDeviation="19.31"/><feFlood flood-color="#34c4e7" flood-opacity=".75"/><feComposite in2="blur-4" operator="in"/><feComposite in="SourceGraphic"/></filter></defs><g id="Layer_1-2"><g><g style="filter:url(#outer-glow-1);"><path d="M163.42,349.25h-24.39V128.1c0-3.12,.87-12.27,2.61-27.45l-47.66,215.8h-5.21L41.11,100.65c1.74,15.33,2.61,24.47,2.61,27.45v221.16H19.32V0h24.02l47.29,227.18c.25,1.19,.5,4.54,.75,10.04,0-2.23,.25-5.58,.74-10.04L139.4,0h24.02V349.25Z" style="fill:#fff;"/><path d="M326.69,324.48c0,7.29-1.99,13.24-5.96,17.85-3.97,4.61-9,6.92-15.08,6.92h-75.03c-6.08,0-11.05-2.3-14.89-6.92-3.85-4.61-5.77-10.56-5.77-17.85V24.77c0-7.29,1.92-13.24,5.77-17.85,3.84-4.61,8.81-6.92,14.89-6.92h75.03c6.08,0,11.11,2.31,15.08,6.92,3.97,4.61,5.96,10.57,5.96,17.85V106h-26.06V27.45h-64.79V321.8h64.79v-85.92h26.06v88.6Z" style="fill:#fff;"/><path d="M485.49,324.48c0,7.29-1.89,13.24-5.68,17.85-3.79,4.61-8.72,6.92-14.8,6.92h-73.35c-6.08,0-11.08-2.3-14.99-6.92-3.91-4.61-5.86-10.56-5.86-17.85v-88.6h25.88v85.92h62.93v-83.24l-80.43-116.49c-5.58-8.03-8.38-16.88-8.38-26.56V24.77c0-7.29,1.96-13.24,5.86-17.85,3.91-4.61,8.9-6.92,14.99-6.92h73.35c6.08,0,11.01,2.31,14.8,6.92,3.78,4.61,5.68,10.57,5.68,17.85V106h-25.88V27.45h-62.93V101.09l80.8,116.49c5.33,7.74,8,16.44,8,26.11v80.79Z" style="fill:#fff;"/><path d="M644.86,324.48c0,7.29-1.89,13.24-5.68,17.85-3.79,4.61-8.72,6.92-14.8,6.92h-73.35c-6.08,0-11.08-2.3-14.99-6.92-3.91-4.61-5.86-10.56-5.86-17.85v-88.6h25.88v85.92h62.93v-83.24l-80.43-116.49c-5.58-8.03-8.38-16.88-8.38-26.56V24.77c0-7.29,1.96-13.24,5.86-17.85,3.91-4.61,8.9-6.92,14.99-6.92h73.35c6.08,0,11.01,2.31,14.8,6.92,3.78,4.61,5.68,10.57,5.68,17.85V106h-25.88V27.45h-62.93V101.09l80.8,116.49c5.33,7.74,8,16.44,8,26.11v80.79Z" style="fill:#fff;"/><path d="M752.83,349.25h-35.19c-13.9,0-20.85-8.4-20.85-25.22V158.22h-21.78v-26.11h21.78V64.49h24.39v67.62h31.65v26.11h-31.65v164.92h31.65v26.11Z" style="fill:#fff;"/><path d="M888.55,324.03c0,16.81-7.01,25.22-21.04,25.22h-62.18c-13.9,0-20.85-8.4-20.85-25.22V157.33c0-16.81,6.95-25.22,20.85-25.22h62.18c14.02,0,21.04,8.41,21.04,25.22v166.7Zm-24.76-.89V158.22h-54.55v164.92h54.55Z" style="fill:#fff;"/><path d="M1023.71,203.53h-24.39v-44.86l-45.61,1.79v188.8h-24.76V132.11h24.76v6.03c8.19-1.49,16.44-3.05,24.76-4.69,9.93-1.79,18.18-2.68,24.76-2.68,13.65,0,20.48,8.11,20.48,24.33v48.43Z" style="fill:#fff;"/><path d="M1157.57,349.25h-24.39v-6.03c-9.81,1.64-19.61,3.2-29.42,4.69-12.17,1.79-21.91,2.68-29.23,2.68-13.53,0-20.29-8.03-20.29-24.1v-79.22c0-16.66,7.01-24.99,21.04-24.99h58.27v-65.39h-53.24v37.04h-24.02v-36.6c0-16.81,6.95-25.22,20.85-25.22h59.57c13.9,0,20.85,8.41,20.85,25.22v191.92Zm-24.02-27v-76.77h-55.29v78.11l55.29-1.34Z" style="fill:#fff;"/><path d="M1301.11,406.38c0,16.81-7.01,25.22-21.04,25.22h-58.83c-14.27,0-21.41-10.64-21.41-31.91,0-2.53,.09-6.29,.28-11.27,.19-4.99,.28-8.59,.28-10.82h24.39v28.79h51.75v-57.13h-40.77c-11.05,0-20.23-4.42-27.55-13.28-7.32-8.85-10.98-19.97-10.98-33.36v-126.98c0-12.79,3.23-23.47,9.68-32.02,6.45-8.55,14.95-12.83,25.5-12.83,2.85,0,17.56,2.46,44.12,7.36v-6.03h24.58V406.38Zm-24.58-83.24V159.12c-19.61-1.49-31.03-2.23-34.25-2.23-13.65,0-20.48,8.33-20.48,24.99v116.27c0,16.66,6.82,24.99,20.48,24.99h34.25Z" style="fill:#fff;"/><path d="M1443.15,324.03c0,16.81-6.95,25.22-20.85,25.22h-59.57c-13.9,0-20.85-8.4-20.85-25.22V157.33c0-16.81,6.95-25.22,20.85-25.22h59.57c13.9,0,20.85,8.41,20.85,25.22v78.11l-8.38,10.49h-68.88v78.55h53.25v-39.72h24.02v39.28Zm-24.02-101.76v-65.39h-53.25v65.39h53.25Z" style="fill:#fff;"/></g><g style="filter:url(#outer-glow-2);"><path d="M1161.4,398.49H9.65c-5.33,0-9.65-4.32-9.65-9.65s4.32-9.65,9.65-9.65H1161.4c5.33,0,9.65,4.32,9.65,9.65s-4.32,9.65-9.65,9.65Z" style="fill:#2bc0d3;"/></g><g style="filter:url(#outer-glow-3);"><path d="M1443.21,398.49h-103.92c-5.33,0-9.65-4.32-9.65-9.65s4.32-9.65,9.65-9.65h103.92c5.33,0,9.65,4.32,9.65,9.65s-4.32,9.65-9.65,9.65Z" style="fill:#2bc0d3;"/></g><g style="filter:url(#outer-glow-4);"><path d="M1384.38,62.05H824.22c-5.33,0-9.65-4.32-9.65-9.65s4.32-9.65,9.65-9.65h560.16c5.33,0,9.65,4.32,9.65,9.65s-4.32,9.65-9.65,9.65Z" style="fill:#2bc0d3;"/><path d="M794.81,91.47c-21.54,0-39.07-17.53-39.07-39.07s17.53-39.07,39.07-39.07,39.07,17.53,39.07,39.07-17.53,39.07-39.07,39.07Zm0-58.83c-10.9,0-19.76,8.86-19.76,19.76s8.86,19.76,19.76,19.76,19.76-8.86,19.76-19.76-8.86-19.76-19.76-19.76Z" style="fill:#2bc0d3;"/><path d="M1413.79,91.47c-21.54,0-39.07-17.53-39.07-39.07s17.53-39.07,39.07-39.07,39.07,17.53,39.07,39.07-17.53,39.07-39.07,39.07Zm0-58.83c-10.9,0-19.76,8.86-19.76,19.76s8.86,19.76,19.76,19.76,19.76-8.86,19.76-19.76-8.86-19.76-19.76-19.76Z" style="fill:#2bc0d3;"/></g></g></g></svg>